<svg width="16" height="16" viewBox="0 0 16 16" fill="none" xmlns="http://www.w3.org/2000/svg">
<g clip-path="url(#clip0_1018_12428)">
<path d="M6.66412 13.3284C6.66406 13.4522 6.69851 13.5736 6.76361 13.679C6.8287 13.7843 6.92187 13.8695 7.03265 13.9248L8.36549 14.5913C8.46711 14.642 8.58004 14.666 8.69353 14.6609C8.80702 14.6557 8.91731 14.6216 9.01393 14.5619C9.11055 14.5021 9.19029 14.4187 9.24557 14.3194C9.30086 14.2202 9.32985 14.1084 9.3298 13.9948V9.32988C9.32994 8.99959 9.45273 8.68112 9.67433 8.43621L14.4879 3.11219C14.5742 3.0166 14.6309 2.89806 14.6512 2.7709C14.6715 2.64375 14.6546 2.51343 14.6024 2.3957C14.5503 2.27798 14.4651 2.17788 14.3573 2.10753C14.2494 2.03717 14.1235 1.99957 13.9947 1.99927H1.99919C1.87031 1.99931 1.7442 2.03673 1.63615 2.10699C1.52811 2.17724 1.44275 2.27732 1.39042 2.3951C1.33809 2.51287 1.32103 2.6433 1.34131 2.77057C1.3616 2.89785 1.41835 3.01651 1.5047 3.11219L6.31958 8.43621C6.54119 8.68112 6.66397 8.99959 6.66412 9.32988V13.3284Z" stroke="#68718B" stroke-width="1.33284" stroke-linecap="round" stroke-linejoin="round"/>
</g>
<defs>
<clipPath id="clip0_1018_12428">
<rect width="15.9941" height="15.9941" fill="white"/>
</clipPath>
</defs>
</svg>
